<svg width="768" height="351" viewBox="0 0 768 351" fill="none" xmlns="http://www.w3.org/2000/svg">
<path fill-rule="evenodd" clip-rule="evenodd" d="M199.86 101.91C191.109 88.8345 187.938 72.5215 192.499 56.4772C197.611 38.4972 211.301 24.8344 228.334 18.3197C232.28 16.8103 236.405 15.685 240.645 14.9778C245.99 14.1973 251.913 14.0317 258.228 14.4871C272.325 15.5028 288.379 19.6134 304.33 26.8816C338.059 42.2504 360.412 66.7646 359.735 85.6462C348.837 83.6686 337.965 84.5729 328.083 87.8375C324.133 89.1427 320.341 90.8256 316.768 92.852C310.192 96.583 304.36 101.479 299.658 107.335L299.307 107.261C284.658 124.576 259.928 133.015 235.715 126.852C231.777 125.85 228.032 124.508 224.506 122.867C223.374 122.34 222.264 121.783 221.178 121.196C220.861 119.528 220.624 117.832 220.472 116.11C217.853 86.5357 241.103 60.5138 272.358 58.0359C274.121 57.8965 275.872 57.8341 277.606 57.8473C272.89 56.6456 267.931 56.0047 262.814 56.0046C231.52 56.0049 206.1 79.9902 205.985 109.575C203.717 107.179 201.669 104.614 199.86 101.91Z" fill="#00B138"/>
<path fill-rule="evenodd" clip-rule="evenodd" d="M17.5443 113.817C15.8261 110.669 15.9658 106.9 17.9143 103.873C19.8621 100.847 23.3366 99 27.0816 99H45.6791C50.7197 99 55.3466 101.638 57.703 105.854C74.3737 135.684 139.783 252.727 139.783 252.727C139.783 252.727 173.079 160.135 184.164 129.309C186.121 123.867 192.366 120.952 198.12 122.795C203.548 124.534 210.16 126.651 215.548 128.376C221.157 130.173 224.174 135.923 222.296 141.237C211.716 171.172 179.451 262.456 169.226 291.388C167.348 296.701 162.09 300.282 156.17 300.282H127.231C122.377 300.282 117.929 297.719 115.702 293.639C100.24 265.313 39.6116 154.244 17.5443 113.817Z" fill="black" stroke="black" stroke-miterlimit="1.5" stroke-linecap="round" stroke-linejoin="round"/>
<path d="M29.1191 89.1042C45.2012 89.1042 58.2382 76.7687 58.2382 61.5521C58.2382 46.3355 45.2012 34 29.1191 34C13.0371 34 0 46.3355 0 61.5521C0 76.7687 13.0371 89.1042 29.1191 89.1042Z" fill="#00B138"/>
<path fill-rule="evenodd" clip-rule="evenodd" d="M721.402 261.207C719.056 257.716 718.205 253.361 719.428 249.078C720.799 244.278 724.471 240.63 729.039 238.891C730.097 238.488 731.204 238.187 732.341 237.999C733.774 237.79 735.363 237.746 737.057 237.868C740.837 238.139 745.143 239.236 749.421 241.177C758.467 245.28 764.462 251.824 764.281 256.865C761.358 256.337 758.442 256.578 755.792 257.45C754.732 257.798 753.715 258.248 752.757 258.789C750.993 259.785 749.429 261.092 748.168 262.655L748.074 262.636C744.145 267.258 737.513 269.511 731.019 267.866C729.962 267.598 728.958 267.24 728.012 266.802C727.709 266.661 727.411 266.512 727.12 266.356C727.035 265.91 726.971 265.457 726.931 264.998C726.228 257.102 732.464 250.155 740.846 249.494C741.319 249.457 741.789 249.44 742.254 249.443C740.989 249.123 739.659 248.952 738.287 248.952C729.894 248.952 723.076 255.355 723.045 263.253C722.437 262.614 721.888 261.929 721.402 261.207Z" fill="#00B138"/>
<path d="M236.918 244.484C240.954 245.396 244.991 246.112 249.027 246.633C253.064 247.154 257.133 247.414 261.234 247.414C265.531 247.414 269.503 247.023 273.148 246.242C276.859 245.396 280.049 244.029 282.719 242.141C285.453 240.188 287.602 237.616 289.164 234.426C290.727 231.236 291.508 227.264 291.508 222.512C291.508 218.671 290.987 215.155 289.945 211.965C288.904 208.775 287.341 206.04 285.258 203.762C283.24 201.483 280.733 199.725 277.738 198.488C274.743 197.186 271.26 196.535 267.289 196.535C263.578 196.535 260.225 197.219 257.23 198.586C254.301 199.953 251.697 201.809 249.418 204.152C247.204 206.431 245.284 209.1 243.656 212.16C242.094 215.22 240.792 218.41 239.75 221.73C238.708 225.051 237.96 228.404 237.504 231.789C237.048 235.174 236.82 238.365 236.82 241.359C236.82 241.88 236.82 242.401 236.82 242.922C236.82 243.443 236.853 243.964 236.918 244.484ZM318.266 222.219C318.266 226.841 317.517 230.975 316.02 234.621C314.522 238.202 312.471 241.359 309.867 244.094C307.328 246.828 304.366 249.139 300.98 251.027C297.595 252.915 293.982 254.478 290.141 255.715C286.299 256.887 282.328 257.733 278.227 258.254C274.19 258.775 270.251 259.035 266.41 259.035C261.527 259.035 256.71 258.71 251.957 258.059C247.204 257.342 242.517 256.236 237.895 254.738C238.611 259.035 239.75 263.137 241.312 267.043C242.875 270.884 244.958 274.27 247.562 277.199C250.167 280.064 253.357 282.342 257.133 284.035C260.974 285.728 265.499 286.574 270.707 286.574C274.158 286.574 277.445 286.053 280.57 285.012C283.695 283.97 286.56 282.505 289.164 280.617C291.768 278.729 294.047 276.483 296 273.879C298.018 271.275 299.646 268.378 300.883 265.188L315.141 270.461C312.992 275.604 310.03 280.064 306.254 283.84C302.543 287.551 298.311 290.643 293.559 293.117C288.871 295.526 283.858 297.316 278.52 298.488C273.246 299.66 268.005 300.246 262.797 300.246C254.203 300.246 246.26 298.814 238.969 295.949C231.677 293.02 225.395 288.951 220.121 283.742C214.848 278.534 210.714 272.316 207.719 265.09C204.724 257.863 203.227 249.953 203.227 241.359C203.227 232.766 204.724 224.855 207.719 217.629C210.714 210.402 214.848 204.185 220.121 198.977C225.395 193.768 231.677 189.732 238.969 186.867C246.26 183.938 254.203 182.473 262.797 182.473C266.964 182.473 271.228 182.766 275.59 183.352C279.952 183.938 284.184 184.882 288.285 186.184C292.387 187.421 296.26 189.048 299.906 191.066C303.552 193.085 306.71 195.591 309.379 198.586C312.113 201.516 314.262 204.934 315.824 208.84C317.452 212.746 318.266 217.206 318.266 222.219ZM356.02 244.484C360.056 245.396 364.092 246.112 368.129 246.633C372.165 247.154 376.234 247.414 380.336 247.414C384.633 247.414 388.604 247.023 392.25 246.242C395.961 245.396 399.151 244.029 401.82 242.141C404.555 240.188 406.703 237.616 408.266 234.426C409.828 231.236 410.609 227.264 410.609 222.512C410.609 218.671 410.089 215.155 409.047 211.965C408.005 208.775 406.443 206.04 404.359 203.762C402.341 201.483 399.835 199.725 396.84 198.488C393.845 197.186 390.362 196.535 386.391 196.535C382.68 196.535 379.327 197.219 376.332 198.586C373.402 199.953 370.798 201.809 368.52 204.152C366.306 206.431 364.385 209.1 362.758 212.16C361.195 215.22 359.893 218.41 358.852 221.73C357.81 225.051 357.061 228.404 356.605 231.789C356.15 235.174 355.922 238.365 355.922 241.359C355.922 241.88 355.922 242.401 355.922 242.922C355.922 243.443 355.954 243.964 356.02 244.484ZM437.367 222.219C437.367 226.841 436.618 230.975 435.121 234.621C433.624 238.202 431.573 241.359 428.969 244.094C426.43 246.828 423.467 249.139 420.082 251.027C416.697 252.915 413.083 254.478 409.242 255.715C405.401 256.887 401.43 257.733 397.328 258.254C393.292 258.775 389.353 259.035 385.512 259.035C380.629 259.035 375.811 258.71 371.059 258.059C366.306 257.342 361.618 256.236 356.996 254.738C357.712 259.035 358.852 263.137 360.414 267.043C361.977 270.884 364.06 274.27 366.664 277.199C369.268 280.064 372.458 282.342 376.234 284.035C380.076 285.728 384.6 286.574 389.809 286.574C393.259 286.574 396.547 286.053 399.672 285.012C402.797 283.97 405.661 282.505 408.266 280.617C410.87 278.729 413.148 276.483 415.102 273.879C417.12 271.275 418.747 268.378 419.984 265.188L434.242 270.461C432.094 275.604 429.132 280.064 425.355 283.84C421.645 287.551 417.413 290.643 412.66 293.117C407.973 295.526 402.96 297.316 397.621 298.488C392.348 299.66 387.107 300.246 381.898 300.246C373.305 300.246 365.362 298.814 358.07 295.949C350.779 293.02 344.496 288.951 339.223 283.742C333.949 278.534 329.815 272.316 326.82 265.09C323.826 257.863 322.328 249.953 322.328 241.359C322.328 232.766 323.826 224.855 326.82 217.629C329.815 210.402 333.949 204.185 339.223 198.977C344.496 193.768 350.779 189.732 358.07 186.867C365.362 183.938 373.305 182.473 381.898 182.473C386.065 182.473 390.329 182.766 394.691 183.352C399.053 183.938 403.285 184.882 407.387 186.184C411.488 187.421 415.362 189.048 419.008 191.066C422.654 193.085 425.811 195.591 428.48 198.586C431.215 201.516 433.363 204.934 434.926 208.84C436.553 212.746 437.367 217.206 437.367 222.219ZM548.949 185.207L507.934 284.426C503.246 295.754 498.005 306.952 492.211 318.02C486.482 329.152 480.264 339.829 473.559 350.051L460.668 342.238C462.296 339.309 464.216 335.923 466.43 332.082C468.643 328.241 470.824 324.27 472.973 320.168C475.121 316.066 477.107 311.997 478.93 307.961C480.753 303.99 482.152 300.344 483.129 297.023L433.812 185.207H466.82L500.316 261.477L526.098 185.207H548.949ZM664.242 298H631.234V284.523C627.328 289.862 622.608 293.833 617.074 296.438C611.605 298.977 605.583 300.246 599.008 300.246C590.414 300.246 582.732 298.716 575.961 295.656C569.19 292.596 563.461 288.43 558.773 283.156C554.086 277.818 550.505 271.568 548.031 264.406C545.557 257.245 544.32 249.562 544.32 241.359C544.32 233.156 545.557 225.474 548.031 218.312C550.505 211.151 554.086 204.934 558.773 199.66C563.461 194.322 569.19 190.122 575.961 187.062C582.732 184.003 590.414 182.473 599.008 182.473C603.37 182.473 607.504 183.124 611.41 184.426C615.382 185.728 618.995 187.583 622.25 189.992C625.57 192.336 628.467 195.201 630.941 198.586C633.48 201.906 635.466 205.617 636.898 209.719L651.547 185.207H664.242V298ZM631.039 241.359C631.039 238.43 630.876 235.337 630.551 232.082C630.29 228.827 629.802 225.604 629.086 222.414C628.37 219.224 627.361 216.197 626.059 213.332C624.822 210.402 623.194 207.831 621.176 205.617C619.223 203.339 616.846 201.548 614.047 200.246C611.247 198.944 607.992 198.293 604.281 198.293C600.57 198.293 597.348 198.977 594.613 200.344C591.879 201.646 589.535 203.436 587.582 205.715C585.629 207.928 584.001 210.5 582.699 213.43C581.462 216.359 580.486 219.419 579.77 222.609C579.053 225.799 578.533 229.022 578.207 232.277C577.947 235.467 577.816 238.495 577.816 241.359C577.816 244.224 577.947 247.284 578.207 250.539C578.533 253.794 579.053 257.017 579.77 260.207C580.486 263.397 581.462 266.457 582.699 269.387C584.001 272.316 585.629 274.921 587.582 277.199C589.535 279.413 591.879 281.203 594.613 282.57C597.348 283.872 600.57 284.523 604.281 284.523C607.667 284.523 610.661 283.84 613.266 282.473C615.935 281.04 618.246 279.152 620.199 276.809C622.217 274.465 623.91 271.796 625.277 268.801C626.645 265.806 627.751 262.714 628.598 259.523C629.444 256.333 630.062 253.176 630.453 250.051C630.844 246.861 631.039 243.964 631.039 241.359ZM714.887 298H681.879V133.254H694.574L714.887 167.531V298Z" fill="black"/>
</svg>
